<svg width="20" height="20" viewBox="0 0 20 20" fill="none" xmlns="http://www.w3.org/2000/svg">
<path d="M0 9.99998C0 14.3667 2.8 18.0667 6.66667 19.4333V0.56665C2.8 1.93332 0 5.63332 0 9.99998Z" fill="#ED4C5C"/>
<path d="M10 0C8.83333 0 7.7 0.2 6.66666 0.566667V6.66667H19.4333C18.0667 2.8 14.3667 0 10 0Z" fill="#699635"/>
<path d="M19.4333 6.66663H6.66666V13.3333H19.4333C19.8 12.3 20 11.1666 20 9.99996C20 8.83329 19.8 7.69996 19.4333 6.66663Z" fill="#F9F9F9"/>
<path d="M6.66666 13.3334V19.4334C7.7 19.8 8.83333 20 10 20C14.3667 20 18.0667 17.2334 19.4333 13.3334H6.66666Z" fill="#3E4347"/>
</svg>
