<svg width="14" height="16" viewBox="0 0 14 16" fill="none" xmlns="http://www.w3.org/2000/svg">
<path d="M7.34 15.0825C7.39299 15.137 7.45635 15.1802 7.52634 15.2098C7.59633 15.2393 7.67153 15.2545 7.7475 15.2545C7.82346 15.2545 7.89866 15.2393 7.96865 15.2098C8.03864 15.1802 8.102 15.137 8.155 15.0825C8.26365 14.971 8.32445 14.8214 8.32445 14.6657C8.32445 14.5099 8.26365 14.3603 8.155 14.2488L2.06375 8.00128L8.155 1.75253C8.20983 1.69639 8.25307 1.63001 8.28224 1.55716C8.31141 1.48431 8.32595 1.40643 8.32502 1.32796C8.32409 1.24949 8.30772 1.17198 8.27683 1.09984C8.24594 1.0277 8.20114 0.962355 8.145 0.907531C8.09152 0.855268 8.02826 0.814065 7.95884 0.786279C7.88941 0.758492 7.8152 0.744667 7.74042 0.745596C7.66565 0.746525 7.5918 0.762189 7.52309 0.791692C7.45438 0.821195 7.39216 0.863955 7.34 0.91753L0.862497 7.56503C0.74873 7.68175 0.685059 7.83829 0.685059 8.00128C0.685059 8.16427 0.74873 8.32081 0.862497 8.43753L7.34 15.0825ZM12.34 15.0825C12.393 15.137 12.4564 15.1802 12.5263 15.2098C12.5963 15.2393 12.6715 15.2545 12.7475 15.2545C12.8235 15.2545 12.8987 15.2393 12.9687 15.2098C13.0386 15.1802 13.102 15.137 13.155 15.0825C13.2637 14.971 13.3245 14.8214 13.3245 14.6657C13.3245 14.5099 13.2637 14.3603 13.155 14.2488L7.06375 8.00128L13.155 1.75253C13.2098 1.69639 13.2531 1.63001 13.2822 1.55716C13.3114 1.48431 13.326 1.40643 13.325 1.32796C13.3241 1.24949 13.3077 1.17198 13.2768 1.09984C13.2459 1.0277 13.2011 0.962355 13.145 0.907531C13.0915 0.855268 13.0283 0.814065 12.9588 0.786279C12.8894 0.758492 12.8152 0.744667 12.7404 0.745596C12.6657 0.746525 12.5918 0.762189 12.5231 0.791692C12.4544 0.821195 12.3922 0.863955 12.34 0.91753L5.8625 7.56503C5.74873 7.68175 5.68506 7.83829 5.68506 8.00128C5.68506 8.16427 5.74873 8.32081 5.8625 8.43753L12.34 15.0825Z" fill="#ECF1F0"/>
</svg>
