<svg width="36" height="36" viewBox="0 0 36 36" fill="none" xmlns="http://www.w3.org/2000/svg">
<rect width="36" height="36" rx="18" fill="#0FAE96"/>
<g clip-path="url(#clip0_1016_2740)">
<path d="M23.2945 21.3333C22.9203 21.3347 22.5503 21.4117 22.2066 21.5597C21.8629 21.7077 21.5527 21.9236 21.2945 22.1944L14.5223 18.8055C14.6889 18.3004 14.6889 17.7551 14.5223 17.25L21.3056 13.8C21.7915 14.312 22.4504 14.6251 23.1542 14.6783C23.858 14.7316 24.5566 14.5213 25.114 14.0882C25.6714 13.6552 26.0479 13.0304 26.1703 12.3352C26.2926 11.64 26.1522 10.9242 25.7762 10.3268C25.4002 9.72945 24.8155 9.29321 24.1358 9.1029C23.4561 8.91259 22.7299 8.9818 22.0984 9.29709C21.4668 9.61238 20.9751 10.1512 20.7187 10.8089C20.4623 11.4665 20.4596 12.196 20.7111 12.8555L13.9945 16.2722C13.6317 15.8286 13.1406 15.508 12.5885 15.3544C12.0364 15.2008 11.4504 15.2217 10.9106 15.4143C10.3709 15.6069 9.9039 15.9617 9.57371 16.43C9.24353 16.8984 9.06628 17.4575 9.06628 18.0305C9.06628 18.6036 9.24353 19.1626 9.57371 19.631C9.9039 20.0994 10.3709 20.4542 10.9106 20.6468C11.4504 20.8393 12.0364 20.8603 12.5885 20.7067C13.1406 20.5531 13.6317 20.2325 13.9945 19.7889L20.6945 23.1611C20.5813 23.4651 20.523 23.7867 20.5223 24.1111C20.5223 24.6605 20.6852 25.1975 20.9904 25.6543C21.2956 26.1111 21.7295 26.4672 22.237 26.6774C22.7446 26.8877 23.3031 26.9427 23.842 26.8355C24.3808 26.7283 24.8757 26.4637 25.2642 26.0753C25.6527 25.6868 25.9173 25.1918 26.0244 24.653C26.1316 24.1142 26.0766 23.5556 25.8664 23.0481C25.6561 22.5405 25.3001 22.1067 24.8433 21.8014C24.3865 21.4962 23.8494 21.3333 23.3 21.3333H23.2945Z" fill="#ECF1F0"/>
</g>
<defs>
<clipPath id="clip0_1016_2740">
<rect width="20" height="20" fill="white" transform="translate(8 8)"/>
</clipPath>
</defs>
</svg>
